<svg id="Layer_1" data-name="Layer 1" xmlns="http://www.w3.org/2000/svg" viewBox="0 0 1920 552.63"><defs><style>.cls-1{font-size:393.46px;fill:#819ec8;font-family:Montserrat-SemiBold, Montserrat;font-weight:700;}.cls-2{fill:#fdeff5;}.cls-3{fill:#dc1570;}.cls-4{fill:#fff;}.cls-5{fill:#f3f3f3;}.cls-6{fill:#010101;}.cls-7{fill:#003240;}.cls-8{fill:#ffd87c;}.cls-9{fill:#72c6b9;}</style></defs><title>logo ms yogi</title><text class="cls-1" transform="translate(257.82 459.53)">naBest</text><path class="cls-2" d="M218.25,310.4l-.35,82.93a98.2,98.2,0,0,1-98.62,97.78h0a98.2,98.2,0,0,1-97.78-98.62l.35-82.93a2.38,2.38,0,0,1,2.39-2.37l191.64.81A2.38,2.38,0,0,1,218.25,310.4Z"/><path d="M225.39,310.43,225,393.36a105.34,105.34,0,1,1-210.69-.89l.35-82.93a9.53,9.53,0,0,1,9.56-9.48l191.64.81A9.53,9.53,0,0,1,225.39,310.43ZM28.63,392.52a91.06,91.06,0,1,0,182.12.77l.33-78.16L29,314.36Z"/><path class="cls-3" d="M218.25,308.22l.67-157.92a98.2,98.2,0,0,0-97.78-98.62h0a98.2,98.2,0,0,0-98.62,97.78l-.67,157.92a2.38,2.38,0,0,0,2.37,2.39l191.64.81A2.38,2.38,0,0,0,218.25,308.22Z"/><path d="M226.07,150.33l-.67,157.92a9.53,9.53,0,0,1-9.56,9.48l-191.64-.81a9.53,9.53,0,0,1-9.48-9.56l.67-157.92a105.34,105.34,0,0,1,210.69.89ZM211.13,303.43l.65-153.15a91.06,91.06,0,0,0-182.12-.77L29,302.65Z"/><path class="cls-4" d="M83.2,343.75l-.25,58.92a11.9,11.9,0,1,1-23.81-.1l.25-58.92a11.9,11.9,0,1,1,23.81.1Z"/><path class="cls-4" d="M83.54,262.61l-.19,44.83a11.9,11.9,0,1,1-23.81-.1l.19-44.83a11.9,11.9,0,1,1,23.81.1Z"/><path class="cls-4" d="M83.83,196l-.1,24.1a11.9,11.9,0,1,1-23.81-.1l.1-24.1a11.9,11.9,0,1,1,23.81.1Z"/><path class="cls-4" d="M84,146.06l0,10.32a11.9,11.9,0,1,1-23.81-.1l0-10.32a11.9,11.9,0,0,1,23.81.1Z"/><circle class="cls-5" cx="205.94" cy="104.95" r="75.01"/><path class="cls-6" d="M205.94,181.22A76.27,76.27,0,1,1,282.21,105,76.36,76.36,0,0,1,205.94,181.22Zm0-150A73.74,73.74,0,1,0,279.69,105,73.83,73.83,0,0,0,205.94,31.21Z"/><rect class="cls-7" x="204.63" y="173.42" width="1.7" height="5.93" rx="0.84" ry="0.84"/><path class="cls-6" d="M205.49,180.61h0a2.11,2.11,0,0,1-2.11-2.11v-4.24a2.12,2.12,0,0,1,4.23,0v4.24A2.11,2.11,0,0,1,205.49,180.61Z"/><rect class="cls-7" x="204.63" y="29.33" width="1.7" height="5.93" rx="0.84" ry="0.84"/><path class="cls-6" d="M205.49,36.52h0a2.11,2.11,0,0,1-2.11-2.11V30.17a2.12,2.12,0,0,1,4.23,0v4.24A2.11,2.11,0,0,1,205.49,36.52Z"/><rect class="cls-7" x="275.02" y="103.99" width="5.93" height="1.7" rx="0.84" ry="0.84"/><path class="cls-6" d="M275.87,107a2.12,2.12,0,0,1,0-4.23h4.24a2.11,2.11,0,0,1,2.11,2.1v0a2.11,2.11,0,0,1-2.1,2.11h-4.24Zm3.82-2.12h0l1.26,0h-1.26Z"/><rect class="cls-7" x="130.93" y="104.22" width="5.93" height="1.7" rx="0.84" ry="0.84" transform="translate(-0.21 0.27) rotate(-0.12)"/><path class="cls-6" d="M131.78,107.19a2.12,2.12,0,0,1,0-4.23H136a2.11,2.11,0,0,1,2.11,2.1v0a2.11,2.11,0,0,1-2.1,2.11h-4.24Zm3.82-2.12h0l1.26,0H135.6Z"/><path class="cls-7" d="M261,156.46h0a.84.84,0,0,1-1.19,0l-3-3a.84.84,0,0,1,0-1.19h0a.84.84,0,0,1,1.19,0l3,3A.84.84,0,0,1,261,156.46Z"/><path class="cls-6" d="M260.41,158h0a2.09,2.09,0,0,1-1.49-.62l-3-3a2.12,2.12,0,0,1,1.5-3.61h0a2.09,2.09,0,0,1,1.49.62l3,3a2.11,2.11,0,0,1,0,3l0,0A2.09,2.09,0,0,1,260.41,158Z"/><path class="cls-7" d="M159.32,54.38h0a.84.84,0,0,1-1.19,0l-3-3a.84.84,0,0,1,0-1.19h0a.84.84,0,0,1,1.19,0l3,3A.84.84,0,0,1,159.32,54.38Z"/><path class="cls-6" d="M158.71,55.9h0a2.09,2.09,0,0,1-1.49-.62l-3-3a2.12,2.12,0,0,1,1.5-3.61h0a2.09,2.09,0,0,1,1.49.62l3,3a2.11,2.11,0,0,1,0,3h0A2.09,2.09,0,0,1,158.71,55.9Z"/><path class="cls-7" d="M254.59,52.82h4.24a.84.84,0,0,1,.84.84v0a.84.84,0,0,1-.84.84h-4.24a.84.84,0,0,1-.84-.84v0A.85.85,0,0,1,254.59,52.82Z" transform="translate(39.12 200.07) rotate(-45.74)"/><path class="cls-6" d="M255.23,57.3a2.12,2.12,0,0,1-1.52-3.59l3-3a2.11,2.11,0,0,1,3,0h0a2.11,2.11,0,0,1,0,3l-3,3A2.1,2.1,0,0,1,255.23,57.3Z"/><rect class="cls-7" x="153.03" y="155.86" width="5.93" height="1.7" rx="0.84" ry="0.84" transform="translate(-65.12 158.75) rotate(-45.66)"/><path class="cls-6" d="M154.52,160.34a2.12,2.12,0,0,1-1.52-3.59l3-3a2.09,2.09,0,0,1,1.48-.63,2.06,2.06,0,0,1,1.5.6h0a2.11,2.11,0,0,1,0,3l-3,3a2.09,2.09,0,0,1-1.48.63Z"/><path class="cls-7" d="M205.94,184.54a79.9,79.9,0,0,1-56.5-136.39,79.9,79.9,0,0,1,113,113A79.37,79.37,0,0,1,205.94,184.54Zm0-156.19a76.29,76.29,0,1,0,76.29,76.29A76.38,76.38,0,0,0,205.94,28.36Z"/><path class="cls-7" d="M205.94,182.56A77.92,77.92,0,1,1,261,159.74,77.41,77.41,0,0,1,205.94,182.56Zm0-152.32a74.4,74.4,0,1,0,74.4,74.4A74.48,74.48,0,0,0,205.94,30.25Z"/><path class="cls-6" d="M205.94,182.74a78.1,78.1,0,1,1,55.22-22.87A77.58,77.58,0,0,1,205.94,182.74Zm0-155.83a77.74,77.74,0,1,0,55,22.77A77.23,77.23,0,0,0,205.94,26.91Zm0,152.32a74.58,74.58,0,1,1,74.58-74.58A74.66,74.66,0,0,1,205.94,179.22Zm0-148.8a74.22,74.22,0,1,0,74.22,74.22A74.3,74.3,0,0,0,205.94,30.43Z"/><path class="cls-7" d="M205.44,105.23h0a1.33,1.33,0,0,1-1.34-1.32V73.47a1.33,1.33,0,0,1,1.34-1.32h0a1.33,1.33,0,0,1,1.34,1.32v30.43A1.33,1.33,0,0,1,205.44,105.23Z"/><path class="cls-8" d="M205.43,106.59h0c-.2,0-.36-.59-.36-1.32V74.83c0-.73.16-1.32.36-1.32h0c.2,0,.36.59.36,1.32v30.43C205.79,106,205.63,106.59,205.43,106.59Z"/><path class="cls-6" d="M205.43,108.58h0c-.55,0-2.34-.24-2.34-3.31V74.83c0-3.07,1.79-3.31,2.34-3.31s2.35.24,2.35,3.31v30.43C207.77,108.34,206,108.58,205.43,108.58Z"/><path class="cls-7" d="M205.14,106.06l0,0c.49-.59,1.6-.49,2.48.24l36.44,30.26c.88.73,1.19,1.8.69,2.39l0,0c-.49.59-1.6.49-2.48-.24l-36.44-30.26C205,107.72,204.64,106.65,205.14,106.06Z"/><path class="cls-9" d="M207.09,107.52l.36-.05c.12-.15-.31-.39.49.27l34.27,28.61c.8.66,1.34,1.32,1.22,1.47h0c-.12.15-.87-.26-1.67-.92l-34.25-28.17C206.7,108.07,207,107.67,207.09,107.52Z"/><path class="cls-6" d="M243.36,139.66a2.9,2.9,0,0,1-1.4-.42,9.22,9.22,0,0,1-1.36-1l-34.25-28.16a3,3,0,0,1-1.2-2,2.33,2.33,0,0,1,.11-.93l-.18-.31.63-.49.44-.53.3,0,1.17-.89,1.12,1.16s.08.08.34.3L243.36,135c.7.58,2.82,2.35,1.45,4A1.86,1.86,0,0,1,243.36,139.66Z"/><circle class="cls-7" cx="205.43" cy="105.23" r="3.89"/><path class="cls-6" d="M205.43,110a4.79,4.79,0,1,1,4.79-4.79A4.8,4.8,0,0,1,205.43,110Zm0-7.78a3,3,0,1,0,3,3A3,3,0,0,0,205.43,102.24Z"/><circle class="cls-8" cx="205.43" cy="105.23" r="2.51"/><path class="cls-6" d="M205.43,108.64a3.41,3.41,0,1,1,3.41-3.41A3.41,3.41,0,0,1,205.43,108.64Zm0-5a1.61,1.61,0,1,0,1.61,1.61A1.61,1.61,0,0,0,205.43,103.63Z"/></svg>